{
.appVersion = "3132";
.formatVersion = 3;
DisplayStrings = (
"אבגדהוזחטיכלמנסעפצקרש",
"אבגדהוזחטיכלמנסעפצקרשת",
"/bet-hb.case/gimel-hb.case/dalet-hb.case/he-hb.case/vav-hb.case/zayin-hb.case/het-hb.case/tet-hb.case/yod-hb.case/mem-hb.case/nun-hb.case/samekh-hb.case/ayin-hb.case/pe-hb.case/tsadi-hb.case/qof-hb.case/resh-hb.case/shin-hb.case/tav-hb.case",
"/bet-hb.case/gimel-hb.case/dalet-hb.case/he-hb.case/vav-hb.case/zayin-hb.case/het-hb.case/tet-hb.case/yod-hb.case/kaf-hb.case/lamed-hb.case/mem-hb.case/nun-hb.case/samekh-hb.case/ayin-hb.case/pe-hb.case/tsadi-hb.case/qof-hb.case/resh-hb.case/shin-hb.case/tav-hb.case אבגדהוזחטיכלמנסעפצקרשת",
"אמ",
"ת",
"אבגדהזחטיכולמנסעפצקרשת"
);
customParameters = (
{
name = glyphOrder;
value = (
.notdef,
space,
"alef-hb",
"bet-hb",
"gimel-hb",
"dalet-hb",
"he-hb",
"vav-hb",
"zayin-hb",
"het-hb",
"tet-hb",
"yod-hb",
"kaf-hb",
"vav-hb",
"lamed-hb",
"mem-hb",
"nun-hb",
"samekh-hb",
"ayin-hb",
"pe-hb",
"tsadi-hb",
"qof-hb",
"resh-hb",
"shin-hb",
"tav-hb",
"alef-hb.case",
"bet-hb.case",
"gimel-hb.case",
"dalet-hb.case",
"he-hb.case",
"vav-hb.case",
"zayin-hb.case",
"het-hb.case",
"tet-hb.case",
"yod-hb.case",
"kaf-hb.case",
"lamed-hb.case",
"mem-hb.case",
"nun-hb.case",
"samekh-hb.case",
"ayin-hb.case",
"pe-hb.case",
"tsadi-hb.case",
"qof-hb.case",
"resh-hb.case",
"shin-hb.case",
"tav-hb.case"
);
}
);
date = "2022-06-16 10:21:29 +0000";
familyName = "Cable Bold New Hebrew Typography";
fontMaster = (
{
id = m01;
metricValues = (
{
over = 16;
pos = 800;
},
{
over = -16;
},
{
over = -16;
pos = -200;
},
{
over = 16;
pos = 630;
}
);
name = Regular;
}
);
glyphs = (
{
glyphname = "alef-hb";
lastChange = "2022-06-23 19:01:53 +0000";
layers = (
{
layerId = m01;
shapes = (
{
closed = 1;
nodes = (
(510,0,l),
(656,0,l),
(194,630,l),
(48,630,l)
);
},
{
closed = 1;
nodes = (
(687,630,l),
(541,630,l),
(325,349,l),
(409,251,l)
);
},
{
closed = 1;
nodes = (
(343,260,l),
(240,407,l),
(134,364,o),
(60,260,o),
(60,139,cs),
(60,81,o),
(77,28,o),
(105,-17,c),
(290,25,l),
(266,-14,l),
(214,16,o),
(180,70,o),
(180,135,cs),
(180,229,o),
(255,303,o),
(348,306,c)
);
}
);
width = 725;
}
);
unicode = 1488;
},
{
glyphname = "gimel-hb";
lastChange = "2022-06-23 18:44:01 +0000";
layers = (
{
layerId = m01;
shapes = (
{
alignment = -1;
pos = (370,0);
ref = _stem;
},
{
closed = 1;
nodes = (
(49,28,l),
(160,-16,l),
(270,250,l),
(289,299,o),
(373,290,o),
(370,233,c),
(370,368,l),
(308,418,o),
(198,387,o),
(159,294,cs)
);
}
);
width = 547;
}
);
unicode = 1490;
},
{
glyphname = "he-hb";
lastChange = "2022-06-23 18:54:37 +0000";
layers = (
{
layerId = m01;
shapes = (
{
alignment = -1;
pos = (462,0);
ref = _stem;
},
{
closed = 1;
nodes = (
(208,380,l),
(329,380,l),
(253,535,l),
(145,510,l),
(463,510,l),
(463,630,l),
(69,630,l)
);
},
{
closed = 1;
nodes = (
(251,70,l),
(204,96,o),
(162,157,o),
(162,218,cs),
(162,301,o),
(229,370,o),
(310,370,cs),
(348,370,o),
(368,370,o),
(408,370,c),
(353,331,l),
(253,535,l),
(308,487,l),
(163,485,o),
(45,367,o),
(45,219,cs),
(45,121,o),
(99,35,o),
(178,-11,c)
);
}
);
width = 633;
}
);
unicode = 1492;
},
{
glyphname = "zayin-hb";
lastChange = "2022-06-23 18:56:24 +0000";
layers = (
{
layerId = m01;
shapes = (
{
alignment = -1;
pos = (77,386);
ref = _stem;
scale = (1,0.3874);
},
{
closed = 1;
nodes = (
(77,404,l),
(77,386,l),
(134,380,o),
(227,326,o),
(227,242,cs),
(227,159,o),
(140,95,o),
(59,95,cs),
(21,95,o),
(11,95,o),
(-29,95,c),
(26,139,l),
(126,-65,l),
(71,-17,l),
(216,-15,o),
(344,93,o),
(344,241,cs),
(344,350,o),
(268,433,o),
(175,474,c),
(231,494,l)
);
}
);
width = 386;
}
);
unicode = 1494;
},
{
glyphname = "het-hb";
lastChange = "2022-06-23 19:00:31 +0000";
layers = (
{
layerId = m01;
shapes = (
{
alignment = -1;
pos = (60,0);
ref = _stem;
},
{
alignment = -1;
pos = (462,0);
ref = _stem;
},
{
closed = 1;
nodes = (
(190,631,l),
(190,511,l),
(462,511,l),
(462,631,l)
);
},
{
closed = 1;
nodes = (
(190,388,l),
(190,268,l),
(463,268,l),
(463,388,l)
);
}
);
width = 634;
}
);
unicode = 1495;
},
{
glyphname = "tet-hb";
lastChange = "2022-06-23 19:22:21 +0000";
layers = (
{
layerId = m01;
shapes = (
{
pos = (161,-510);
ref = _roof;
},
{
closed = 1;
nodes = (
(361,325,l),
(468,397,l),
(494,420,l),
(481,424,l),
(481,-45,l),
(436,0,l),
(611,0,l),
(611,650,l),
(361,480,l)
);
},
{
closed = 1;
nodes = (
(332,102,l),
(320,58,l),
(236,112,o),
(179,207,o),
(179,315,cs),
(179,427,o),
(240,525,o),
(330,577,c),
(339,531,l),
(211,644,l),
(116,566,o),
(55,447,o),
(55,315,cs),
(55,190,o),
(108,78,o),
(195,0,c)
);
}
);
width = 670;
}
);
unicode = 1496;
},
{
glyphname = "yod-hb";
lastChange = "2022-06-23 19:01:35 +0000";
layers = (
{
layerId = m01;
shapes = (
{
closed = 1;
nodes = (
(50,282,l),
(107,294,o),
(180,340,o),
(180,474,c),
(180,630,l),
(50,630,l)
);
}
);
width = 229;
}
);
unicode = 1497;
},
{
glyphname = "kaf-hb";
lastChange = "2022-06-19 07:49:26 +0000";
layers = (
{
background = {
shapes = (
{
closed = 1;
nodes = (
(199,-14,o),
(233,-6,o),
(265,3,cs),
(334,23,o),
(389,63,o),
(423,129,cs),
(451,183,o),
(460,238,o),
(441,297,cs),
(431,330,o),
(417,360,o),
(395,387,cs),
(346,447,o),
(282,479,o),
(204,482,cs),
(197,482,o),
(191,483,o),
(184,482,cs),
(150,476,o),
(145,485,o),
(135,445,cs),
(131,427,o),
(129,408,o),
(117,391,cs),
(109,381,o),
(119,373,o),
(131,374,cs),
(138,375,o),
(144,378,o),
(150,380,cs),
(203,395,o),
(250,388,o),
(294,353,cs),
(359,302,o),
(364,203,o),
(323,151,cs),
(273,88,o),
(194,69,o),
(125,111,cs),
(119,114,o),
(114,118,o),
(107,113,cs),
(102,108,o),
(102,102,o),
(104,96,cs),
(106,85,o),
(109,75,o),
(108,63,cs),
(102,20,o),
(114,5,o),
(155,0,cs),
(159,0,o),
(162,-1,o),
(165,-2,cs)
);
}
);
};
layerId = m01;
shapes = (
{
closed = 1;
nodes = (
(125,-51,l),
(88,1,l),
(123,-10,o),
(157,-16,o),
(193,-16,cs),
(375,-16,o),
(523,132,o),
(523,315,cs),
(523,498,o),
(375,646,o),
(193,646,cs),
(158,646,o),
(123,640,o),
(93,631,c),
(128,682,l),
(70,363,l),
(58,473,l),
(92,504,o),
(140,521,o),
(191,521,cs),
(303,521,o),
(396,429,o),
(396,315,cs),
(396,201,o),
(303,109,o),
(191,109,cs),
(139,109,o),
(90,128,o),
(54,159,c),
(65,309,l)
);
}
);
width = 553;
}
);
unicode = 1499;
},
{
glyphname = "vav-hb";
lastChange = "2022-06-23 19:01:19 +0000";
layers = (
{
layerId = m01;
shapes = (
{
closed = 1;
nodes = (
(50,-8,l),
(107,4,o),
(180,50,o),
(180,184,c),
(180,630,l),
(50,630,l)
);
}
);
width = 224;
}
);
unicode = 1493;
},
{
glyphname = "lamed-hb";
lastChange = "2022-06-23 19:06:20 +0000";
layers = (
{
layerId = m01;
shapes = (
{
closed = 1;
nodes = (
(111,259,l),
(241,259,l),
(241,631,l),
(111,631,l)
);
},
{
closed = 1;
nodes = (
(74,0,l),
(350,0,l),
(350,121,l),
(44,121,l)
);
},
{
closed = 1;
nodes = (
(221,259,l),
(350,259,l),
(350,380,l),
(221,380,l)
);
},
{
closed = 1;
nodes = (
(350,380,o),
(350,259,o),
(350,259,cs),
(388,259,o),
(419,228,o),
(419,190,cs),
(419,152,o),
(388,121,o),
(350,121,cs),
(350,121,o),
(350,0,o),
(350,0,cs),
(455,0,o),
(540,85,o),
(540,190,cs),
(540,295,o),
(455,380,o),
(350,380,cs)
);
}
);
width = 588;
}
);
unicode = 1500;
},
{
glyphname = "mem-hb";
lastChange = "2022-06-23 19:21:49 +0000";
layers = (
{
layerId = m01;
shapes = (
{
alignment = -1;
pos = (51,0);
ref = _stem;
},
{
closed = 1;
nodes = (
(544,68,o),
(597,210,o),
(597,335,cs),
(597,478,o),
(544,646,o),
(340,646,cs),
(271,646,o),
(187,606,o),
(170,558,c),
(175,319,l),
(204,464,o),
(265,526,o),
(342,526,cs),
(431,526,o),
(473,451,o),
(473,335,cs),
(473,227,o),
(416,102,o),
(332,48,c),
(320,92,l),
(457,-10,l)
);
}
);
width = 656;
}
);
unicode = 1502;
},
{
glyphname = "nun-hb";
lastChange = "2022-06-23 19:15:32 +0000";
layers = (
{
layerId = m01;
shapes = (
{
closed = 1;
nodes = (
(240,46,l),
(197,84,o),
(173,117,o),
(173,155,cs),
(173,193,o),
(206,224,o),
(244,224,c),
(312,224,o),
(389,111,o),
(494,-18,c),
(494,630,l),
(364,630,l),
(364,202,l),
(389,259,l),
(364,296,o),
(303,344,o),
(244,344,cs),
(139,344,o),
(52,260,o),
(52,155,cs),
(52,84,o),
(100,22,o),
(139,-11,c)
);
}
);
width = 548;
}
);
unicode = 1504;
},
{
glyphname = "ayin-hb";
lastChange = "2022-06-23 19:17:26 +0000";
layers = (
{
layerId = m01;
shapes = (
{
closed = 1;
nodes = (
(145,13,l),
(275,-17,l),
(613,617,l),
(486,646,l)
);
},
{
closed = 1;
nodes = (
(370,299,l),
(185,646,l),
(55,616,l),
(294,172,l)
);
}
);
width = 660;
}
);
unicode = 1506;
},
{
glyphname = "pe-hb";
lastChange = "2022-06-23 19:10:30 +0000";
layers = (
{
layerId = m01;
shapes = (
{
alignment = -1;
pos = (400,0);
ref = _stem;
},
{
closed = 1;
nodes = (
(254,371,l),
(254,250,l),
(300,250,l),
(330,371,l)
);
},
{
closed = 1;
nodes = (
(254,250,o),
(254,371,o),
(254,371,cs),
(216,371,o),
(185,402,o),
(185,440,cs),
(185,478,o),
(218,509,o),
(256,509,cs),
(256,509,o),
(256,630,o),
(256,630,cs),
(151,630,o),
(64,545,o),
(64,440,cs),
(64,335,o),
(149,250,o),
(254,250,cs)
);
},
{
pos = (50,630);
ref = _roof;
scale = (1,-1);
},
{
closed = 1;
nodes = (
(256,630,l),
(256,509,l),
(400,509,l),
(400,630,l)
);
}
);
width = 574;
}
);
unicode = 1508;
},
{
glyphname = "tsadi-hb";
lastChange = "2022-06-23 19:08:24 +0000";
layers = (
{
layerId = m01;
shapes = (
{
pos = (10,0);
ref = "lamed-hb";
},
{
closed = 1;
nodes = (
(557,630,l),
(411,630,l),
(195,349,l),
(299,281,l)
);
}
);
width = 612;
}
);
unicode = 1510;
},
{
glyphname = "qof-hb";
lastChange = "2022-06-23 19:07:43 +0000";
layers = (
{
layerId = m01;
shapes = (
{
closed = 1;
nodes = (
(201,0,l),
(201,372,l),
(71,372,l),
(71,0,l)
);
},
{
closed = 1;
nodes = (
(310,510,l),
(310,631,l),
(64,631,l),
(34,510,l)
);
},
{
closed = 1;
nodes = (
(310,251,l),
(310,372,l),
(181,372,l),
(181,251,l)
);
},
{
closed = 1;
nodes = (
(415,251,o),
(500,336,o),
(500,441,cs),
(500,546,o),
(415,631,o),
(310,631,cs),
(310,631,o),
(310,510,o),
(310,510,cs),
(348,510,o),
(379,479,o),
(379,441,cs),
(379,403,o),
(348,372,o),
(310,372,cs),
(310,372,o),
(310,251,o),
(310,251,cs)
);
}
);
width = 546;
}
);
unicode = 1511;
},
{
glyphname = "resh-hb";
lastChange = "2022-06-23 19:24:12 +0000";
layers = (
{
layerId = m01;
shapes = (
{
closed = 1;
nodes = (
(487,387,o),
(524,387,o),
(560,387,c),
(560,529,o),
(444,645,o),
(302,645,cs),
(163,645,o),
(49,534,o),
(44,396,c),
(172,371,l),
(172,378,o),
(172,380,o),
(172,387,cs),
(172,459,o),
(230,517,o),
(302,517,cs),
(374,517,o),
(430,459,o),
(430,387,c)
);
},
{
closed = 1;
nodes = (
(430,0,l),
(560,0,l),
(560,387,l),
(430,387,l)
);
}
);
width = 619;
}
);
unicode = 1512;
},
{
glyphname = "shin-hb";
lastChange = "2022-06-23 18:58:13 +0000";
layers = (
{
layerId = m01;
shapes = (
{
alignment = -1;
pos = (70,0);
ref = _stem;
},
{
closed = 1;
nodes = (
(218,441,l),
(79,190,l),
(189,190,l),
(496,630,l),
(354,630,l)
);
},
{
closed = 1;
nodes = (
(398,585,l),
(547,585,l),
(547,630,l),
(398,630,l)
);
},
{
pos = (662,0);
ref = _roof.bow;
scale = (-1,1);
}
);
width = 661;
}
);
unicode = 1513;
},
{
glyphname = "alef-hb.case";
lastChange = "2022-06-16 13:53:16 +0000";
layers = (
{
layerId = m01;
shapes = (
{
closed = 1;
nodes = (
(181,271,o),
(135,245,o),
(87,229,c),
(89,263,o),
(90,291,o),
(92,320,c),
(92,325,o),
(103,332,o),
(109,333,c),
(199,350,o),
(289,346,o),
(339,243,c),
(368,241,o),
(393,184,o),
(380,151,c),
(368,150,o),
(356,147,o),
(342,145,c),
(342,106,o),
(341,67,o),
(342,28,c),
(343,9,o),
(337,2,o),
(319,0,c),
(243,-5,o),
(238,3,o),
(248,103,c),
(250,116,o),
(248,128,o),
(248,145,c),
(209,137,o),
(167,143,o),
(151,106,c),
(134,69,o),
(170,42,o),
(189,9,c),
(151,-4,o),
(113,-5,o),
(87,9,c),
(61,24,o),
(47,60,o),
(50,94,c),
(57,173,o),
(98,210,o),
(190,226,c),
(202,228,o),
(215,230,o),
(233,233,c)
);
}
);
width = 434;
}
);
},
{
glyphname = "bet-hb.case";
lastChange = "2022-06-16 11:05:20 +0000";
layers = (
{
layerId = m01;
shapes = (
{
closed = 1;
nodes = (
(369,326,o),
(356,312,o),
(349,300,c),
(305,236,o),
(312,171,o),
(338,105,c),
(339,100,o),
(340,96,o),
(342,92,c),
(360,-8,o),
(360,-7,o),
(260,0,c),
(205,3,o),
(150,1,o),
(96,1,c),
(82,1,o),
(67,2,o),
(61,19,c),
(52,44,o),
(45,70,o),
(54,94,c),
(57,104,o),
(66,102,o),
(74,101,c),
(124,98,o),
(175,96,o),
(227,93,c),
(230,93,o),
(234,96,o),
(239,97,c),
(231,144,o),
(208,188,o),
(226,237,c),
(182,247,o),
(141,244,o),
(101,241,c),
(69,240,o),
(53,245,o),
(61,286,c),
(69,341,o),
(98,347,o),
(145,343,c),
(214,338,o),
(282,335,o),
(351,344,c)
);
}
);
width = 410;
}
);
},
{
glyphname = "gimel-hb.case";
lastChange = "2022-06-16 11:05:51 +0000";
layers = (
{
layerId = m01;
shapes = (
{
closed = 1;
nodes = (
(295,268,o),
(295,295,o),
(293,323,c),
(293,342,o),
(300,351,o),
(319,349,c),
(323,347,o),
(327,346,o),
(331,347,c),
(392,362,o),
(404,332,o),
(401,276,c),
(396,195,o),
(395,113,o),
(403,33,c),
(404,20,o),
(397,8,o),
(382,7,c),
(360,4,o),
(339,3,o),
(317,3,c),
(291,3,o),
(296,25,o),
(295,39,c),
(293,52,o),
(296,65,o),
(296,78,c),
(296,116,o),
(286,147,o),
(241,150,c),
(197,154,o),
(161,121,o),
(161,81,c),
(160,5,o),
(193,-54,o),
(251,-103,c),
(269,-118,o),
(270,-131,o),
(251,-145,c),
(235,-157,o),
(221,-171,o),
(205,-184,c),
(195,-194,o),
(183,-194,o),
(175,-184,c),
(115,-109,o),
(53,-38,o),
(50,66,c),
(48,194,o),
(158,274,o),
(295,239,c)
);
}
);
width = 453;
}
);
},
{
glyphname = "dalet-hb.case";
lastChange = "2022-06-16 11:05:20 +0000";
layers = (
{
layerId = m01;
shapes = (
{
closed = 1;
nodes = (
(178,234,o),
(177,228,o),
(180,223,c),
(193,193,o),
(186,177,o),
(151,169,c),
(90,155,o),
(77,163,o),
(72,228,c),
(70,255,o),
(63,283,o),
(53,307,c),
(43,340,o),
(57,346,o),
(85,346,c),
(125,344,o),
(165,342,o),
(206,341,c),
(216,341,o),
(226,344,o),
(238,346,c),
(261,336,o),
(286,344,o),
(311,342,c),
(333,342,o),
(343,337,o),
(343,311,c),
(343,220,o),
(347,129,o),
(347,38,c),
(347,15,o),
(342,-5,o),
(311,-1,c),
(286,3,o),
(259,-6,o),
(237,15,c),
(237,238,l),
(217,240,o),
(198,241,o),
(177,242,c)
);
}
);
width = 397;
}
);
},
{
glyphname = "he-hb.case";
lastChange = "2022-06-16 11:05:20 +0000";
layers = (
{
layerId = m01;
shapes = (
{
closed = 1;
nodes = (
(215,121,o),
(189,63,o),
(160,6,c),
(150,-14,o),
(129,-5,o),
(113,-1,c),
(38,14,o),
(38,14,o),
(72,82,c),
(85,110,o),
(99,134,o),
(113,160,c),
(51,241,o),
(46,264,o),
(95,315,c),
(142,365,o),
(208,340,o),
(269,345,c),
(269,487,l),
(269,623,l),
(307,621,o),
(338,619,o),
(372,617,c),
(372,3,l),
(340,3,o),
(308,1,o),
(277,3,c),
(267,4,o),
(268,19,o),
(268,28,c),
(268,92,o),
(269,155,o),
(269,218,c),
(269,227,o),
(267,236,o),
(266,248,c),
(237,245,o),
(197,262,o),
(185,238,c),
(160,186,o),
(230,211,o),
(241,179,c)
);
}
);
width = 422;
}
);
},
{
glyphname = "vav-hb.case";
lastChange = "2022-06-16 11:05:20 +0000";
layers = (
{
layerId = m01;
shapes = (
{
closed = 1;
nodes = (
(148,245,o),
(139,231,o),
(132,213,c),
(126,194,o),
(115,190,o),
(98,200,c),
(44,232,o),
(40,241,o),
(66,294,c),
(63,300,o),
(61,305,o),
(58,310,c),
(67,322,o),
(67,322,o),
(88,317,c),
(144,356,o),
(200,350,o),
(253,309,c),
(286,283,o),
(280,244,o),
(283,209,c),
(287,149,o),
(279,88,o),
(290,28,c),
(291,15,o),
(284,5,o),
(270,2,c),
(252,1,o),
(234,-2,o),
(215,-2,c),
(192,-3,o),
(180,6,o),
(182,33,c),
(184,86,o),
(183,141,o),
(182,196,c),
(182,210,o),
(178,223,o),
(176,236,c)
);
}
);
width = 340;
}
);
},
{
glyphname = "zayin-hb.case";
lastChange = "2022-06-16 11:05:20 +0000";
layers = (
{
layerId = m01;
shapes = (
{
closed = 1;
nodes = (
(244,250,o),
(236,248,o),
(228,249,c),
(209,250,o),
(189,257,o),
(178,233,c),
(166,209,o),
(183,189,o),
(194,172,c),
(239,107,o),
(297,51,o),
(323,-24,c),
(334,-71,o),
(319,-109,o),
(291,-144,c),
(254,-189,o),
(202,-196,o),
(149,-200,c),
(49,-206,o),
(76,-202,o),
(51,-116,c),
(46,-102,o),
(57,-92,o),
(74,-97,c),
(103,-107,o),
(135,-101,o),
(166,-97,c),
(224,-90,o),
(230,-58,o),
(191,1,c),
(149,64,o),
(90,115,o),
(67,192,c),
(51,241,o),
(62,283,o),
(101,318,c),
(137,350,o),
(181,357,o),
(227,350,c),
(248,346,o),
(262,281,o),
(250,250,c)
);
}
);
width = 377;
}
);
},
{
glyphname = "het-hb.case";
lastChange = "2022-06-16 11:05:20 +0000";
layers = (
{
layerId = m01;
shapes = (
{
closed = 1;
nodes = (
(348,-3,o),
(321,-1,o),
(292,4,c),
(280,5,o),
(280,17,o),
(280,27,c),
(280,96,o),
(280,166,o),
(280,238,c),
(179,238,l),
(191,178,o),
(180,121,o),
(165,62,c),
(158,39,o),
(145,19,o),
(133,-1,c),
(128,-12,o),
(118,-9,o),
(107,-5,c),
(42,27,o),
(44,26,o),
(70,92,c),
(98,169,o),
(90,243,o),
(54,315,c),
(46,331,o),
(51,342,o),
(70,342,c),
(167,342,o),
(263,343,o),
(361,341,c),
(404,341,o),
(380,308,o),
(380,290,c),
(383,218,o),
(382,146,o),
(384,74,c),
(386,51,o),
(384,30,o),
(376,5,c)
);
}
);
width = 437;
}
);
},
{
glyphname = "tet-hb.case";
lastChange = "2022-06-16 11:05:20 +0000";
layers = (
{
layerId = m01;
shapes = (
{
closed = 1;
nodes = (
(231,269,o),
(216,265,o),
(203,260,c),
(164,241,o),
(150,209,o),
(156,170,c),
(163,119,o),
(206,107,o),
(246,102,c),
(276,98,o),
(307,97,o),
(340,109,c),
(339,118,o),
(339,127,o),
(337,140,c),
(315,140,o),
(294,140,o),
(275,139,c),
(247,139,o),
(240,146,o),
(247,176,c),
(259,219,o),
(277,243,o),
(327,234,c),
(359,228,o),
(393,235,o),
(427,235,c),
(440,235,o),
(447,226,o),
(447,213,c),
(445,152,o),
(445,91,o),
(445,29,c),
(445,9,o),
(436,-2,o),
(414,-1,c),
(332,6,o),
(249,-8,o),
(168,18,c),
(91,44,o),
(41,126,o),
(51,206,c),
(61,299,o),
(106,348,o),
(198,372,c),
(211,375,o),
(221,373,o),
(225,359,c),
(232,331,o),
(240,304,o),
(247,274,c)
);
}
);
width = 497;
}
);
},
{
glyphname = "yod-hb.case";
lastChange = "2022-06-16 11:05:33 +0000";
layers = (
{
layerId = m01;
shapes = (
{
closed = 1;
nodes = (
(62,298,o),
(58,344,o),
(91,354,c),
(149,374,o),
(223,334,o),
(234,288,c),
(240,256,o),
(242,223,o),
(245,190,c),
(248,159,o),
(238,146,o),
(203,142,c),
(161,138,o),
(151,149,o),
(154,189,c),
(161,253,o),
(141,269,o),
(76,259,c),
(70,259,o),
(62,261,o),
(50,262,c)
);
}
);
width = 296;
}
);
},
{
glyphname = "kaf-hb.case";
lastChange = "2022-06-16 11:05:20 +0000";
layers = (
{
background = {
shapes = (
{
closed = 1;
nodes = (
(129,-14,o),
(163,-6,o),
(195,3,cs),
(264,23,o),
(319,63,o),
(353,129,cs),
(381,183,o),
(390,238,o),
(371,297,cs),
(361,330,o),
(347,360,o),
(325,387,cs),
(276,447,o),
(212,479,o),
(134,482,cs),
(127,482,o),
(121,483,o),
(114,482,cs),
(80,476,o),
(75,485,o),
(65,445,cs),
(61,427,o),
(59,408,o),
(47,391,cs),
(39,381,o),
(49,373,o),
(61,374,cs),
(68,375,o),
(74,378,o),
(80,380,cs),
(133,395,o),
(180,388,o),
(224,353,cs),
(289,302,o),
(294,203,o),
(253,151,cs),
(203,88,o),
(124,69,o),
(55,111,cs),
(49,114,o),
(44,118,o),
(37,113,cs),
(32,108,o),
(32,102,o),
(34,96,cs),
(36,85,o),
(39,75,o),
(38,63,cs),
(32,20,o),
(44,5,o),
(85,0,cs),
(89,0,o),
(92,-1,o),
(95,-2,cs)
);
}
);
};
layerId = m01;
shapes = (
{
closed = 1;
nodes = (
(269,252,o),
(204,286,o),
(134,259,c),
(85,241,o),
(89,293,o),
(71,312,c),
(56,328,o),
(70,342,o),
(88,352,c),
(212,420,o),
(373,333,o),
(377,194,c),
(378,120,o),
(352,55,o),
(283,18,c),
(203,-25,o),
(119,-14,o),
(57,40,c),
(39,56,o),
(59,68,o),
(63,82,c),
(78,121,o),
(98,133,o),
(139,107,c),
(193,71,o),
(269,118,o),
(269,183,c)
);
}
);
width = 427;
}
);
},
{
glyphname = "lamed-hb.case";
lastChange = "2022-06-16 11:05:20 +0000";
layers = (
{
layerId = m01;
shapes = (
{
closed = 1;
nodes = (
(97,110,o),
(128,87,o),
(168,103,c),
(196,113,o),
(213,134,o),
(219,164,c),
(223,186,o),
(224,209,o),
(202,225,c),
(176,243,o),
(146,260,o),
(115,238,c),
(72,209,o),
(51,212,o),
(56,269,c),
(56,273,o),
(54,278,o),
(56,268,c),
(56,338,o),
(58,394,o),
(56,449,c),
(55,494,o),
(54,540,o),
(51,587,c),
(47,623,o),
(60,635,o),
(97,627,c),
(176,610,o),
(176,610,o),
(167,507,c),
(164,483,o),
(166,458,o),
(166,434,c),
(166,410,o),
(166,386,o),
(166,360,c),
(194,354,o),
(224,351,o),
(250,332,c),
(324,280,o),
(349,166,o),
(305,82,c),
(270,14,o),
(158,-24,o),
(80,6,c),
(59,14,o),
(49,31,o),
(54,53,c),
(59,77,o),
(49,103,o),
(63,130,c)
);
}
);
width = 377;
}
);
},
{
glyphname = "mem-hb.case";
lastChange = "2022-06-16 11:05:20 +0000";
layers = (
{
layerId = m01;
shapes = (
{
closed = 1;
nodes = (
(210,140,o),
(300,200,o),
(300,239,c),
(262,249,o),
(229,234,o),
(199,213,c),
(173,196,o),
(141,182,o),
(158,140,c)
);
},
{
closed = 1;
nodes = (
(161,327,o),
(154,312,o),
(153,293,c),
(210,342,o),
(270,359,o),
(339,342,c),
(374,333,o),
(398,310,o),
(406,277,c),
(413,241,o),
(415,206,o),
(391,174,c),
(333,96,o),
(256,50,o),
(157,41,c),
(157,-1,l),
(123,-14,o),
(92,-2,o),
(53,-4,c),
(53,32,o),
(53,67,o),
(53,101,c),
(53,169,o),
(54,236,o),
(50,303,c),
(49,343,o),
(70,344,o),
(98,342,c),
(115,340,o),
(131,340,o),
(147,339,c)
);
}
);
width = 461;
}
);
},
{
glyphname = "nun-hb.case";
lastChange = "2022-06-16 11:05:20 +0000";
layers = (
{
layerId = m01;
shapes = (
{
closed = 1;
nodes = (
(68,76,o),
(82,65,o),
(95,67,c),
(177,84,o),
(246,119,o),
(289,195,c),
(295,205,o),
(298,217,o),
(289,229,c),
(281,239,o),
(269,240,o),
(259,236,c),
(194,218,o),
(148,173,o),
(102,130,c),
(91,121,o),
(83,105,o),
(68,110,c),
(52,117,o),
(53,134,o),
(53,147,c),
(51,201,o),
(50,257,o),
(50,313,c),
(50,331,o),
(59,346,o),
(79,344,c),
(103,343,o),
(125,341,o),
(150,339,c),
(150,289,l),
(186,322,o),
(224,338,o),
(268,343,c),
(374,355,o),
(432,286,o),
(398,183,c),
(367,84,o),
(290,31,o),
(199,1,c),
(128,-22,o),
(74,4,o),
(57,58,c)
);
}
);
width = 458;
}
);
},
{
glyphname = "samekh-hb.case";
lastChange = "2022-06-16 11:05:39 +0000";
layers = (
{
layerId = m01;
shapes = (
{
closed = 1;
nodes = (
(188,213,o),
(184,193,o),
(187,176,c),
(192,154,o),
(175,124,o),
(200,111,c),
(225,97,o),
(255,96,o),
(279,114,c),
(313,140,o),
(311,178,o),
(295,209,c),
(273,249,o),
(230,237,o),
(191,235,c)
);
},
{
closed = 1;
nodes = (
(178,335,o),
(210,344,o),
(243,344,c),
(324,345,o),
(378,305,o),
(406,218,c),
(424,159,o),
(390,70,o),
(338,36,c),
(300,12,o),
(300,12,o),
(190,6,c),
(191,-51,o),
(184,-107,o),
(164,-161,c),
(156,-180,o),
(143,-202,o),
(123,-201,c),
(101,-200,o),
(78,-185,o),
(56,-174,c),
(49,-171,o),
(48,-161,o),
(53,-153,c),
(99,-88,o),
(91,-15,o),
(89,58,c),
(87,146,o),
(93,235,o),
(84,323,c),
(83,342,o),
(100,347,o),
(115,344,c),
(126,343,o),
(136,340,o),
(143,347,c)
);
}
);
width = 461;
}
);
},
{
glyphname = "ayin-hb.case";
lastChange = "2022-06-16 11:05:41 +0000";
layers = (
{
layerId = m01;
shapes = (
{
closed = 1;
nodes = (
(189,275,o),
(226,197,o),
(265,114,c),
(286,157,o),
(304,196,o),
(323,234,c),
(341,273,o),
(359,312,o),
(377,349,c),
(383,358,o),
(389,360,o),
(398,360,c),
(422,356,o),
(446,355,o),
(470,349,c),
(492,344,o),
(487,327,o),
(480,313,c),
(432,215,o),
(384,118,o),
(336,20,c),
(301,-50,o),
(264,-122,o),
(229,-192,c),
(224,-204,o),
(215,-213,o),
(202,-209,c),
(177,-201,o),
(152,-192,o),
(122,-181,c),
(141,-141,o),
(150,-98,o),
(174,-67,c),
(229,-2,o),
(185,50,o),
(159,105,c),
(125,175,o),
(89,245,o),
(53,317,c),
(48,325,o),
(48,336,o),
(57,339,c),
(89,347,o),
(120,352,o),
(148,358,c)
);
}
);
width = 536;
}
);
},
{
glyphname = "pe-hb.case";
lastChange = "2022-06-16 11:05:43 +0000";
layers = (
{
layerId = m01;
shapes = (
{
closed = 1;
nodes = (
(268,68,o),
(265,34,o),
(243,13,c),
(216,-12,o),
(182,8,o),
(155,21,c),
(82,52,o),
(37,138,o),
(53,210,c),
(71,290,o),
(143,350,o),
(225,350,c),
(272,350,o),
(319,349,o),
(364,348,c),
(376,348,o),
(384,345,o),
(384,332,c),
(384,167,o),
(385,3,o),
(382,-162,c),
(381,-216,o),
(337,-187,o),
(311,-190,c),
(286,-192,o),
(281,-174,o),
(282,-149,c),
(286,-86,o),
(286,-21,o),
(287,43,c),
(289,103,o),
(286,162,o),
(287,220,c),
(289,243,o),
(279,253,o),
(257,249,c),
(226,242,o),
(188,246,o),
(169,215,c),
(138,168,o),
(179,103,o),
(238,102,c),
(248,102,o),
(259,100,o),
(272,100,c)
);
}
);
width = 434;
}
);
},
{
glyphname = "tsadi-hb.case";
lastChange = "2022-06-16 11:05:20 +0000";
layers = (
{
layerId = m01;
shapes = (
{
closed = 1;
nodes = (
(92,-79,o),
(121,-101,o),
(155,-102,c),
(199,-104,o),
(242,-96,o),
(260,-50,c),
(276,-12,o),
(265,27,o),
(226,49,c),
(190,68,o),
(150,69,o),
(111,53,c),
(85,42,o),
(73,46,o),
(73,77,c),
(73,187,o),
(72,296,o),
(70,405,c),
(70,422,o),
(77,431,o),
(95,430,c),
(116,429,o),
(137,427,o),
(157,426,c),
(170,425,o),
(173,414,o),
(173,403,c),
(172,335,o),
(173,267,o),
(173,183,c),
(217,278,o),
(268,344,o),
(381,314,c),
(340,257,o),
(301,202,o),
(260,145,c),
(291,127,o),
(321,110,o),
(341,81,c),
(383,19,o),
(380,-46,o),
(346,-109,c),
(306,-182,o),
(237,-205,o),
(159,-200,c),
(131,-199,o),
(104,-191,o),
(78,-184,c),
(52,-176,o),
(40,-106,o),
(61,-68,c)
);
}
);
width = 431;
}
);
},
{
glyphname = "qof-hb.case";
lastChange = "2022-06-16 11:05:20 +0000";
layers = (
{
layerId = m01;
shapes = (
{
closed = 1;
nodes = (
(155,148,o),
(190,108,o),
(241,108,c),
(286,108,o),
(330,148,o),
(330,191,c),
(330,239,o),
(295,281,o),
(255,282,c),
(187,283,o),
(155,259,o),
(155,204,c)
);
},
{
closed = 1;
nodes = (
(289,-85,l),
(255,-89,o),
(220,-98,o),
(198,-77,c),
(176,-56,o),
(198,-18,o),
(187,10,c),
(65,97,o),
(29,168,o),
(61,257,c),
(90,337,o),
(173,394,o),
(251,389,c),
(336,382,o),
(414,319,o),
(429,242,c),
(449,140,o),
(406,69,o),
(289,10,c)
);
}
);
width = 484;
}
);
},
{
glyphname = "resh-hb.case";
lastChange = "2022-06-16 11:05:20 +0000";
layers = (
{
layerId = m01;
shapes = (
{
closed = 1;
nodes = (
(76,273,o),
(6,359,o),
(117,337,c),
(131,323,o),
(154,316,o),
(178,303,c),
(180,315,o),
(183,324,o),
(187,338,c),
(214,337,o),
(243,336,o),
(271,332,c),
(280,332,o),
(282,323,o),
(282,315,c),
(282,219,o),
(282,122,o),
(282,26,c),
(282,8,o),
(273,1,o),
(256,1,c),
(244,0,o),
(234,1,o),
(223,0,c),
(192,-3,o),
(175,7,o),
(178,43,c),
(182,83,o),
(179,125,o),
(180,165,c),
(180,204,o),
(144,230,o),
(89,233,c),
(78,233,o),
(65,229,o),
(50,245,c)
);
}
);
width = 332;
}
);
},
{
glyphname = "shin-hb.case";
lastChange = "2022-06-16 11:05:20 +0000";
layers = (
{
layerId = m01;
shapes = (
{
closed = 1;
nodes = (
(264,85,o),
(315,101,o),
(332,140,c),
(340,159,o),
(345,183,o),
(323,205,c),
(289,172,o),
(250,152,o),
(206,140,c),
(210,124,o),
(212,113,o),
(215,102,c)
);
},
{
closed = 1;
nodes = (
(232,247,o),
(270,276,o),
(292,322,c),
(309,356,o),
(323,357,o),
(352,336,c),
(448,265,o),
(474,140,o),
(388,44,c),
(350,1,o),
(296,-3,o),
(242,-2,c),
(231,-2,o),
(219,2,o),
(209,1,c),
(147,-12,o),
(123,19,o),
(111,74,c),
(94,152,o),
(72,228,o),
(51,306,c),
(47,323,o),
(52,335,o),
(73,334,c),
(95,332,o),
(117,334,o),
(140,330,c),
(162,326,o),
(159,303,o),
(164,287,c),
(171,270,o),
(173,252,o),
(179,232,c)
);
}
);
width = 490;
}
);
},
{
glyphname = "tav-hb.case";
lastChange = "2022-06-16 11:05:20 +0000";
layers = (
{
layerId = m01;
shapes = (
{
closed = 1;
nodes = (
(290,410,l),
(163,410,l),
(147,440,o),
(164,506,o),
(184,506,c),
(217,507,o),
(251,506,o),
(286,506,c),
(286,532,o),
(289,559,o),
(286,587,c),
(284,613,o),
(288,626,o),
(318,626,c),
(410,624,o),
(392,632,o),
(394,549,c),
(396,533,o),
(394,519,o),
(394,503,c),
(423,496,o),
(452,507,o),
(476,497,c),
(476,410,l),
(449,401,o),
(423,406,o),
(396,406,c),
(396,377,o),
(396,349,o),
(396,320,c),
(396,243,o),
(394,165,o),
(394,88,c),
(394,82,o),
(394,77,o),
(394,71,c),
(397,-13,o),
(392,0,o),
(310,0,c),
(294,1,o),
(289,16,o),
(289,30,c),
(289,78,o),
(289,126,o),
(289,174,c),
(289,211,o),
(243,255,o),
(207,252,c),
(171,251,o),
(151,220,o),
(158,173,c),
(164,122,o),
(187,79,o),
(216,39,c),
(229,21,o),
(225,9,o),
(204,4,c),
(129,-17,o),
(122,-17,o),
(87,53,c),
(50,129,o),
(31,208,o),
(77,285,c),
(117,354,o),
(202,372,o),
(273,336,c),
(279,333,o),
(284,330,o),
(290,328,c)
);
}
);
width = 526;
}
);
},
{
export = 0;
glyphname = _roof;
lastChange = "2022-06-23 18:44:18 +0000";
layers = (
{
layerId = m01;
shapes = (
{
closed = 1;
nodes = (
(448,510,l),
(448,630,l),
(64,630,l),
(34,510,l)
);
}
);
width = 600;
}
);
},
{
export = 0;
glyphname = _stem;
lastChange = "2022-06-23 18:37:15 +0000";
layers = (
{
layerId = m01;
shapes = (
{
closed = 1;
nodes = (
(0,0,l),
(130,0,l),
(130,630,l),
(0,630,l)
);
}
);
width = 130;
}
);
},
{
export = 0;
glyphname = _bow.large;
lastChange = "2022-06-23 18:59:18 +0000";
layers = (
{
layerId = m01;
shapes = (
{
closed = 1;
nodes = (
(216,68,l),
(205,29,l),
(162,82,o),
(137,143,o),
(137,216,cs),
(137,382,o),
(267,502,o),
(435,502,cs),
(506,502,l),
(441,484,l),
(441,649,l),
(506,630,l),
(433,630,ls),
(195,630,o),
(5,446,o),
(5,210,cs),
(5,125,o),
(29,50,o),
(72,-16,c)
);
}
);
width = 600;
}
);
},
{
export = 0;
glyphname = _roof.bow;
lastChange = "2022-06-23 18:59:01 +0000";
layers = (
{
layerId = m01;
shapes = (
{
closed = 1;
nodes = (
(38,630,l),
(99,654,l),
(52,587,o),
(26,509,o),
(26,420,cs),
(26,184,o),
(216,0,o),
(454,0,cs),
(497,0,l),
(462,-19,l),
(462,146,l),
(497,125,l),
(455,125,ls),
(284,125,o),
(153,246,o),
(153,415,cs),
(153,489,o),
(178,550,o),
(222,604,c),
(237,563,l),
(82,651,l),
(166,630,l)
);
}
